<?xml version="1.0" encoding="UTF-8"?>
<svg version="1.1" xmlns="http://www.w3.org/2000/svg" width="36" height="38">
<path d="M0 0 C11.88 0 23.76 0 36 0 C36 12.54 36 25.08 36 38 C24.12 38 12.24 38 0 38 C0 25.46 0 12.92 0 0 Z " fill="#EAEEF2" transform="translate(0,0)"/>
<path d="M0 0 C0.5775 0.165 1.155 0.33 1.75 0.5 C4.26664369 1.14462031 4.26664369 1.14462031 8 1 C8 2.32 8 3.64 8 5 C8.66 5 9.32 5 10 5 C9.773125 6.258125 9.54625 7.51625 9.3125 8.8125 C8.79806803 12.14138709 8.79806803 12.14138709 10.4375 15 C11.2109375 15.495 11.2109375 15.495 12 16 C12.84098656 11.98195309 13.05404945 8.98196457 12 5 C12.66 5 13.32 5 14 5 C14 3.68 14 2.36 14 1 C17.465 0.505 17.465 0.505 21 0 C20.40072174 3.35595828 19.15377564 5.37801226 17 8 C17.66 8 18.32 8 19 8 C19.66 6.68 20.32 5.36 21 4 C21.99 4 22.98 4 24 4 C23.67 5.32 23.34 6.64 23 8 C23.66 8 24.32 8 25 8 C24.4740625 9.423125 24.4740625 9.423125 23.9375 10.875 C22.64973223 13.87060172 22.64973223 13.87060172 24 16 C23.36191406 15.98839844 22.72382813 15.97679687 22.06640625 15.96484375 C21.24011719 15.95582031 20.41382812 15.94679688 19.5625 15.9375 C18.73878906 15.92589844 17.91507813 15.91429687 17.06640625 15.90234375 C15.00836062 15.76732652 15.00836062 15.76732652 14 17 C13.92851801 18.35243917 13.91600546 19.70834367 13.9375 21.0625 C13.958125 22.361875 13.97875 23.66125 14 25 C16.31 25.99 18.62 26.98 21 28 C18 30 18 30 15.3125 29.625 C14.549375 29.41875 13.78625 29.2125 13 29 C12.67 29.66 12.34 30.32 12 31 C11.34 30.34 10.68 29.68 10 29 C9.34 29.33 8.68 29.66 8 30 C8 29.34 8 28.68 8 28 C4.83333333 29.83333333 4.83333333 29.83333333 3 33 C2.505 31.515 2.505 31.515 2 30 C1.34 29.34 0.68 28.68 0 28 C3.96 26.515 3.96 26.515 8 25 C8 22.36 8 19.72 8 17 C4.59437148 16.22157062 1.49234244 15.90021879 -2 16 C-2.54466387 11.915021 -3 8.1274515 -3 4 C-2.01 4 -1.02 4 0 4 C0 2.68 0 1.36 0 0 Z " fill="#5C887A" transform="translate(8,1)"/>
<path d="M0 0 C0.87785156 0.07089844 1.75570313 0.14179688 2.66015625 0.21484375 C3.53542969 0.26769531 4.41070312 0.32054688 5.3125 0.375 C7.72265625 1.15234375 7.72265625 1.15234375 9.52734375 3.19140625 C11.06423655 6.99848057 11.04940593 10.43810459 10.91015625 14.46484375 C10.84828125 17.00171875 10.78640625 19.53859375 10.72265625 22.15234375 C5.11265625 22.15234375 -0.49734375 22.15234375 -6.27734375 22.15234375 C-4.95734375 21.82234375 -3.63734375 21.49234375 -2.27734375 21.15234375 C-2.27734375 19.50234375 -2.27734375 17.85234375 -2.27734375 16.15234375 C-1.28734375 16.81234375 -0.29734375 17.47234375 0.72265625 18.15234375 C0.72265625 17.49234375 0.72265625 16.83234375 0.72265625 16.15234375 C2.04265625 15.82234375 3.36265625 15.49234375 4.72265625 15.15234375 C4.72265625 14.49234375 4.72265625 13.83234375 4.72265625 13.15234375 C3.60890625 13.02859375 2.49515625 12.90484375 1.34765625 12.77734375 C-2.27734375 12.15234375 -2.27734375 12.15234375 -4.27734375 10.15234375 C-4.54296875 8.27734375 -4.54296875 8.27734375 -4.52734375 6.15234375 C-4.5325 5.45109375 -4.53765625 4.74984375 -4.54296875 4.02734375 C-4.1172799 1.02248127 -2.95624334 0.19775899 0 0 Z " fill="#FAFBFB" transform="translate(25.27734375,15.84765625)"/>
<path d="M0 0 C0.5775 0.165 1.155 0.33 1.75 0.5 C4.26664369 1.14462031 4.26664369 1.14462031 8 1 C8 2.32 8 3.64 8 5 C8.66 5 9.32 5 10 5 C9.70703125 6.98567708 9.4140625 8.97135417 9.12109375 10.95703125 C8.86095201 13.2025342 8.86095201 13.2025342 10 16 C6 16 2 16 -2 16 C-2.54466387 11.915021 -3 8.1274515 -3 4 C-2.01 4 -1.02 4 0 4 C0 2.68 0 1.36 0 0 Z " fill="#518071" transform="translate(8,1)"/>
<path d="M0 0 C1.98 0 3.96 0 6 0 C6 7.26 6 14.52 6 22 C1.5 16.375 1.5 16.375 0 13 C0.99 11.68 1.98 10.36 3 9 C2.34 9 1.68 9 1 9 C1.33 7.68 1.66 6.36 2 5 C-1.12197478 6.3089572 -1.12197478 6.3089572 -3 9 C-3.66 9 -4.32 9 -5 9 C-4.35330586 7.65686601 -3.68096422 6.32608822 -3 5 C-2.5875 4.0925 -2.175 3.185 -1.75 2.25 C-1.1725 1.5075 -0.595 0.765 0 0 Z " fill="#D1D7E7" transform="translate(30,0)"/>
<path d="M0 0 C4 0 4 0 7 1 C8.33568021 0.67619874 9.66923011 0.34342449 11 0 C11.66 0.33 12.32 0.66 13 1 C13.99 0.67 14.98 0.34 16 0 C16 0.66 16 1.32 16 2 C15.01 2.66 14.02 3.32 13 4 C12.67 4.66 12.34 5.32 12 6 C5.65384615 9 5.65384615 9 3 9 C3 7.68 3 6.36 3 5 C2.67 5.99 2.34 6.98 2 8 C0.68 7.67 -0.64 7.34 -2 7 C-2.125 4.625 -2.125 4.625 -2 2 C-1.34 1.34 -0.68 0.68 0 0 Z " fill="#92AEA5" transform="translate(14,29)"/>
<path d="M0 0 C0.99 0.33 1.98 0.66 3 1 C3 3.64 3 6.28 3 9 C5.97 9.99 8.94 10.98 12 12 C9 14 9 14 6.3125 13.625 C5.549375 13.41875 4.78625 13.2125 4 13 C3.67 13.66 3.34 14.32 3 15 C2.34 14.34 1.68 13.68 1 13 C0.01 13.495 0.01 13.495 -1 14 C-1 13.34 -1 12.68 -1 12 C-4.16666667 13.83333333 -4.16666667 13.83333333 -6 17 C-6.33 16.01 -6.66 15.02 -7 14 C-7.66 13.34 -8.32 12.68 -9 12 C-6.36 11.01 -3.72 10.02 -1 9 C-0.67 6.03 -0.34 3.06 0 0 Z " fill="#356E5D" transform="translate(17,17)"/>
<path d="M0 0 C0.99 0 1.98 0 3 0 C2.67 1.32 2.34 2.64 2 4 C2.66 4 3.32 4 4 4 C3.649375 4.94875 3.29875 5.8975 2.9375 6.875 C1.64973223 9.87060172 1.64973223 9.87060172 3 12 C0.36 11.67 -2.28 11.34 -5 11 C-5.33 10.01 -5.66 9.02 -6 8 C-5.566875 7.608125 -5.13375 7.21625 -4.6875 6.8125 C-2.85161509 4.98497199 -2.85161509 4.98497199 -1.5 2.3125 C-1.005 1.549375 -0.51 0.78625 0 0 Z " fill="#648E81" transform="translate(29,5)"/>
<path d="M0 0 C1.32 0.33 2.64 0.66 4 1 C4.16873478 2.43725871 4.33490737 3.87481838 4.5 5.3125 C4.5928125 6.11300781 4.685625 6.91351563 4.78125 7.73828125 C5 10 5 10 5 13 C4.4225 12.54625 3.845 12.0925 3.25 11.625 C1.2199667 10.15886484 -0.73539843 9.05142216 -3 8 C-3 6.68 -3 5.36 -3 4 C-2.01 4 -1.02 4 0 4 C0 2.68 0 1.36 0 0 Z " fill="#8FADA4" transform="translate(8,1)"/>
<path d="M0 0 C2.23915424 0.73602403 2.23915424 0.73602403 5.0625 -0.5 C5.0625 0.16 5.0625 0.82 5.0625 1.5 C4.0725 2.16 3.0825 2.82 2.0625 3.5 C1.7325 4.16 1.4025 4.82 1.0625 5.5 C-5.28365385 8.5 -5.28365385 8.5 -7.9375 8.5 C-7.9375 7.51 -7.9375 6.52 -7.9375 5.5 C-7.2775 5.5 -6.6175 5.5 -5.9375 5.5 C-5.6075 4.84 -5.2775 4.18 -4.9375 3.5 C-4.2775 3.5 -3.6175 3.5 -2.9375 3.5 C-3.2675 2.51 -3.5975 1.52 -3.9375 0.5 C-1.9375 -0.5 -1.9375 -0.5 0 0 Z " fill="#C9D6D1" transform="translate(24.9375,29.5)"/>
<path d="M0 0 C3.67420866 0.30618405 4.78135513 0.75771784 7.3125 3.5625 C8.1478125 4.7690625 8.1478125 4.7690625 9 6 C6.36 6.33 3.72 6.66 1 7 C0.67 4.69 0.34 2.38 0 0 Z " fill="#669083" transform="translate(5,10)"/>
<path d="M0 0 C0.99 0.66 1.98 1.32 3 2 C2.49396008 4.16874252 2.00016187 5.99967627 1 8 C0.01 7.67 -0.98 7.34 -2 7 C-2.33 5.35 -2.66 3.7 -3 2 C-2.01 1.34 -1.02 0.68 0 0 Z " fill="#EDF1F0" transform="translate(19,9)"/>
<path d="M0 0 C0.99 0 1.98 0 3 0 C2.67 1.32 2.34 2.64 2 4 C2.66 4.33 3.32 4.66 4 5 C-0.455 6.485 -0.455 6.485 -5 8 C-1.38671875 1.75 -1.38671875 1.75 0 0 Z " fill="#93B0A7" transform="translate(29,5)"/>
<path d="M0 0 C0.99 0.99 1.98 1.98 3 3 C2.01 3.495 2.01 3.495 1 4 C1 3.34 1 2.68 1 2 C-2.16666667 3.83333333 -2.16666667 3.83333333 -4 7 C-4.33 6.01 -4.66 5.02 -5 4 C-5.66 3.34 -6.32 2.68 -7 2 C-4.69 1.34 -2.38 0.68 0 0 Z " fill="#628C7F" transform="translate(15,27)"/>
<path d="M0 0 C0.598125 0.185625 1.19625 0.37125 1.8125 0.5625 C4.16408762 1.22093687 4.16408762 1.22093687 7 0 C7 0.66 7 1.32 7 2 C6.01 2.66 5.02 3.32 4 4 C3.67 4.66 3.34 5.32 3 6 C2.01 6.495 2.01 6.495 1 7 C0.67 4.69 0.34 2.38 0 0 Z " fill="#9DB5AD" transform="translate(23,29)"/>
<path d="M0 0 C2.64 0.99 5.28 1.98 8 3 C5 5 5 5 2.3125 4.625 C1.549375 4.41875 0.78625 4.2125 0 4 C-0.33 4.66 -0.66 5.32 -1 6 C-0.67 4.02 -0.34 2.04 0 0 Z " fill="#5C887A" transform="translate(21,26)"/>
<path d="M0 0 C0.66 0 1.32 0 2 0 C1.62875 0.5775 1.2575 1.155 0.875 1.75 C-0.29166667 4 -0.29166667 4 0.875 6.25 C1.24625 6.8275 1.6175 7.405 2 8 C0.68 7.67 -0.64 7.34 -2 7 C-2.125 4.625 -2.125 4.625 -2 2 C-1.34 1.34 -0.68 0.68 0 0 Z " fill="#C5D3CE" transform="translate(14,29)"/>
<path d="M0 0 C0.99 0 1.98 0 3 0 C2.25 4.75 2.25 4.75 0 7 C-0.38133299 5.0085944 -0.71325582 3.00720923 -1 1 C-0.67 0.67 -0.34 0.34 0 0 Z " fill="#71978B" transform="translate(15,6)"/>
</svg>
